<svg width="61" height="36" viewBox="0 0 61 36" fill="none" xmlns="http://www.w3.org/2000/svg">
<path opacity="0.06" d="M22.033 15.3529C23.5828 16.2941 24.7619 17.5 25.5705 18.9706C26.379 20.3824 26.7833 21.9706 26.7833 23.7353C26.7833 27.3824 25.402 30.3529 22.6395 32.6471C19.8769 34.8824 16.4742 36 12.4315 36C8.72562 36 5.72724 35.0294 3.43635 33.0882C1.14545 31.1471 0 28.6176 0 25.5C0 23.9118 0.336897 22.3824 1.01069 20.9118C1.68448 19.4412 2.931 17.5588 4.75024 15.2647L16.6764 0H30.826L22.033 15.3529ZM51.343 15.3529C52.8928 16.2941 54.0719 17.5 54.8805 18.9706C55.689 20.3824 56.0933 21.9706 56.0933 23.7353C56.0933 27.3824 54.712 30.3529 51.9495 32.6471C49.1869 34.8824 45.7843 36 41.7415 36C38.0356 36 35.0373 35.0294 32.7464 33.0882C30.4555 31.1471 29.31 28.6176 29.31 25.5C29.31 23.9118 29.6469 22.3824 30.3207 20.9118C30.9945 19.4412 32.241 17.5588 34.0602 15.2647L45.9864 0H60.136L51.343 15.3529Z" fill="#333333"/>
</svg>
