<svg width="153" height="133" viewBox="0 0 153 133" fill="none" xmlns="http://www.w3.org/2000/svg">
<path fill-rule="evenodd" clip-rule="evenodd" d="M130.485 130.299C130.913 130.72 130.924 131.413 130.501 131.84C130.079 132.268 129.393 132.257 128.977 131.824L126.324 129.065C125.94 128.665 125.949 128.026 126.339 127.632C126.729 127.237 127.361 127.227 127.757 127.616L130.485 130.299ZM7.34235 107.369C6.79369 107.608 6.15653 107.353 5.92761 106.795C5.69872 106.237 5.97011 105.6 6.52529 105.376L10.0613 103.953C10.5734 103.746 11.1533 104 11.3645 104.515C11.5757 105.03 11.3429 105.623 10.8368 105.844L7.34235 107.369ZM146.475 105.376C147.03 105.6 147.302 106.237 147.073 106.795C146.844 107.353 146.207 107.608 145.658 107.369L142.163 105.844C141.657 105.623 141.425 105.03 141.636 104.515C141.847 104 142.427 103.746 142.939 103.953L146.475 105.376ZM1.22448 78.3131C0.624806 78.3216 0.131108 77.8368 0.131108 77.2303C0.131108 76.6239 0.624791 76.1391 1.22445 76.1476L5.02027 76.2011C5.57459 76.2089 6.01697 76.6697 6.01697 77.2303C6.01697 77.791 5.57459 78.2518 5.02027 78.2596L1.22448 78.3131ZM152.869 77.2304C152.869 77.8368 152.375 78.3216 151.776 78.3131L147.98 78.2596C147.426 78.2518 146.983 77.791 146.983 77.2304C146.983 76.6697 147.426 76.2089 147.98 76.2011L151.776 76.1476C152.375 76.1391 152.869 76.6239 152.869 77.2304ZM6.52529 49.0847C5.97012 48.8612 5.69872 48.2239 5.92762 47.6657C6.15653 47.1075 6.79369 46.8527 7.34235 47.0921L10.8367 48.617C11.3429 48.8378 11.5757 49.4309 11.3645 49.9458C11.1534 50.4607 10.5734 50.7143 10.0613 50.5081L6.52529 49.0847ZM145.658 47.0921C146.207 46.8527 146.844 47.1075 147.073 47.6657C147.302 48.2239 147.03 48.8612 146.475 49.0847L142.939 50.5081C142.427 50.7143 141.847 50.4607 141.636 49.9458C141.425 49.4309 141.657 48.8378 142.163 48.617L145.658 47.0921ZM128.977 22.6366C129.393 22.2033 130.079 22.193 130.501 22.6203C130.924 23.0476 130.913 23.7409 130.485 24.1621L127.757 26.8443C127.361 27.2333 126.729 27.2237 126.339 26.8292C125.949 26.4346 125.94 25.7955 126.324 25.3955L128.977 22.6366ZM22.5152 24.1621C22.0868 23.7409 22.0765 23.0476 22.4991 22.6203C22.9216 22.193 23.6071 22.2034 24.0237 22.6366L26.676 25.3955C27.0606 25.7955 27.0511 26.4346 26.661 26.8292C26.2708 27.2237 25.6389 27.2333 25.2433 26.8443L22.5152 24.1621ZM46.698 7.29266C46.4613 6.73782 46.7132 6.09348 47.2652 5.862C47.8171 5.63051 48.4473 5.90494 48.6683 6.46639L50.0759 10.0423C50.2798 10.5602 50.029 11.1466 49.5199 11.3602C49.0107 11.5737 48.4242 11.3383 48.2058 10.8265L46.698 7.29266ZM104.332 6.46638C104.553 5.90494 105.183 5.63051 105.735 5.862C106.287 6.09349 106.539 6.73783 106.302 7.29267L104.794 10.8265C104.576 11.3383 103.99 11.5737 103.48 11.3602C102.971 11.1466 102.72 10.5601 102.924 10.0422L104.332 6.46638ZM76.5001 0.000100135C77.0998 0.000100188 77.5792 0.499353 77.5708 1.10578L77.5179 4.94441C77.5102 5.50498 77.0545 5.95235 76.5001 5.95235C75.9458 5.95235 75.4901 5.50497 75.4824 4.94439L75.4294 1.1058C75.4211 0.499368 75.9004 0.000100083 76.5001 0.000100135Z" fill="#0063A8"/>
</svg>
